<svg xmlns="http://www.w3.org/2000/svg" enable-background="new 0 0 47.5 47.5" viewBox="0 0 47.5 47.5"><defs><clipPath id="a"><path d="M0 38h38V0H0v38Z"/></clipPath></defs><g clip-path="url(#a)" transform="matrix(1.25 0 0 -1.25 0 47.5)"><path fill="#ccd6dd" d="M0 0a4 4 0 0 0-4-4h-28a4 4 0 0 0-4 4v18a4 4 0 0 0 4 4h28a4 4 0 0 0 4-4V0Z" transform="translate(37 10)"/><path fill="#99aab5" d="m0 0-11.313-11.313c-.027-.028-.037-.063-.06-.091a3.987 3.987 0 0 1 1.384-1.384c.029.023.063.033.09.059L1.415-1.414A1 1 0 0 1 0 0" transform="translate(12.95 19.364)"/><path fill="#99aab5" d="M0 0c-.021.028-.033.063-.06.09l-11.312 11.314a1 1 0 1 1-1.415-1.414L-1.474-1.324c.027-.027.062-.037.09-.06A3.97 3.97 0 0 1 0 0" transform="translate(36.423 7.96)"/><path fill="#99aab5" d="M0 0h-28a4 4 0 0 1-4-4v-1.03l14.528-14.495a4.88 4.88 0 0 1 6.884 0L4-5.009V-4a4 4 0 0 1-4 4" transform="translate(33 32)"/><path fill="#e1e8ed" d="M0 0h-28a3.992 3.992 0 0 1-3.595-2.275l14.766-14.767a4 4 0 0 1 5.657 0L3.595-2.275A3.991 3.991 0 0 1 0 0" transform="translate(33 32)"/></g></svg>